<?xml version="1.0" standalone="no"?><!DOCTYPE svg PUBLIC "-//W3C//DTD SVG 1.1//EN" "http://www.w3.org/Graphics/SVG/1.1/DTD/svg11.dtd"><svg t="1659773258851" class="icon" viewBox="0 0 1024 1024" version="1.1" xmlns="http://www.w3.org/2000/svg" p-id="11688" xmlns:xlink="http://www.w3.org/1999/xlink" width="128" height="128"><defs><style type="text/css">@font-face { font-family: feedback-iconfont; src: url("//at.alicdn.com/t/font_1031158_u69w8yhxdu.woff2?t=1630033759944") format("woff2"), url("//at.alicdn.com/t/font_1031158_u69w8yhxdu.woff?t=1630033759944") format("woff"), url("//at.alicdn.com/t/font_1031158_u69w8yhxdu.ttf?t=1630033759944") format("truetype"); }
</style></defs><path d="M235.52 382.293333c-73.386667 0-136.533333-13.653333-184.32-34.133333v47.786667c0 27.306667 71.68 66.56 184.32 66.56s184.32-39.253333 184.32-66.56v-47.786667c-46.08 20.48-110.933333 34.133333-184.32 34.133333zM235.52 329.386667c83.626667 0 148.48-18.773333 184.32-40.96v-97.28c-42.666667 27.306667-107.52 42.666667-184.32 42.666666-76.8 0-141.653333-17.066667-184.32-42.666666v97.28c37.546667 22.186667 100.693333 40.96 184.32 40.96zM235.52 47.786667c-110.933333 0-182.613333 39.253333-182.613333 68.266666s71.68 66.56 184.32 66.56 184.32-39.253333 184.32-66.56-73.386667-68.266667-186.026667-68.266666zM913.066667 336.213333c-18.773333 0-34.133333-15.36-34.133334-34.133333V162.133333c0-32.426667-25.6-58.026667-58.026666-58.026666h-139.946667c-18.773333 0-34.133333-15.36-34.133333-34.133334s15.36-34.133333 34.133333-34.133333H819.2c69.973333 0 128 58.026667 128 128v139.946667c0 17.066667-15.36 32.426667-34.133333 32.426666zM305.493333 943.786667H165.546667c-69.973333 0-128-58.026667-128-128v-139.946667c0-18.773333 15.36-34.133333 34.133333-34.133333s34.133333 15.36 34.133333 34.133333v139.946667c0 32.426667 25.6 58.026667 58.026667 58.026666h139.946667c18.773333 0 34.133333 15.36 34.133333 34.133334s-11.946667 35.84-32.426667 35.84z" fill="#0061b2" p-id="11689"></path><path d="M959.146667 508.586667H539.306667c-13.653333 0-25.6 11.946667-25.6 25.6v279.893333c0 13.653333 11.946667 25.6 25.6 25.6h175.786666v80.213333h-105.813333c-18.773333 0-34.133333 15.36-34.133333 34.133334s15.36 34.133333 34.133333 34.133333h279.893333c18.773333 0 34.133333-15.36 34.133334-34.133333s-15.36-34.133333-34.133334-34.133334h-105.813333v-80.213333h175.786667c13.653333 0 25.6-11.946667 25.6-25.6V535.893333c0-15.36-10.24-27.306667-25.6-27.306666z" fill="#0061b2" p-id="11690"></path></svg>